#!OML:ASF H:\Terrain\Patient Classification 1\Walking\liu\liu.ASF
:FULLY-SPECIFIED
:DEGREES
31
root 8.21363 16.1711 -28.0366 5.38328 -0.562681 -3.79496
lowerback -5.23054 1.88998 0.694045
upperback -0.0846405 2.38492 3.28064
thorax 2.73326 1.17912 3.17286
lowerneck -21.5077 -6.51668 -14.9522
upperneck 19.303 -7.58214 13.8363
head 10.93 -3.00353 6.34587
rclavicle 1.34925e-014 -7.15625e-015
rhumerus -29.3056 21.6381 -83.6902
rradius 42.2959
rwrist -20.0486
rhand -32.5347 -31.1092
rfingers 7.12502
rthumb -5.76501 -61.0107
lclavicle 1.34925e-014 -7.15625e-015
lhumerus -46.1319 -2.10021 85.5527
lradius 27.4909
lwrist 6.08063
lhand -12.8959 -20.6258
lfingers 7.12502
lthumb 13.1935 8.9367
rfemur -5.11971 3.72357 31.5474
rtibia 20.6159
rfoot -19.3338 2.32072
rtoes -7.1217
lfemur -39.7639 9.10609 -17.7758
ltibia 36.5994
lfoot -12.7566 9.92716
ltoes -11.2437
32
root 8.22157 16.1662 -27.9233 5.49292 -0.646481 -3.7975
lowerback -5.30933 1.91222 0.693654
upperback -0.0570057 2.41372 3.20347
thorax 2.80782 1.19316 3.0993
lowerneck -21.4361 -6.50822 -14.6905
upperneck 19.0293 -7.60902 13.7127
head 10.8036 -3.01141 6.23727
rclavicle -2.5345e-015 2.46493e-014
rhumerus -29.0271 21.7212 -83.7772
rradius 42.6525
rwrist -20.2997
rhand -32.178 -30.2401
rfingers 7.12502
rthumb -5.42056 -60.1508
lclavicle -2.5345e-015 2.46493e-014
lhumerus -45.9968 -1.64884 85.2173
lradius 27.2662
lwrist 5.42039
lhand -12.7634 -20.7104
lfingers 7.12502
lthumb 13.3212 8.84381
rfemur -4.45531 3.39237 31.5048
rtibia 19.9078
rfoot -18.8174 2.64567
rtoes -6.02706
lfemur -39.8868 8.55409 -17.7013
ltibia 34.3081
lfoot -12.6755 9.7049
ltoes -11.6907
33
root 8.22737 16.1746 -27.812 5.55471 -0.716733 -3.90704
lowerback -5.30933 1.95084 0.763844
upperback -0.0606717 2.4592 3.26888
thorax 2.80202 1.21647 3.13098
lowerneck -21.6658 -6.61005 -15.0338
upperneck 19.2312 -7.67098 13.8923
head 10.955 -3.03802 6.3628
rclavicle -2.75565e-014 -7.95139e-015
rhumerus -28.9989 21.7515 -83.7172
rradius 43.2361
rwrist -20.6183
rhand -32.2476 -30.2221
rfingers 7.12502
rthumb -5.4878 -60.131
lclavicle -2.75565e-014 -7.95139e-015
lhumerus -45.8928 -1.24794 85.2242
lradius 26.8907
lwrist 5.11623
lhand -12.2672 -20.6956
lfingers 7.12502
lthumb 13.7995 8.82668
rfemur -3.74792 3.39542 31.5967
rtibia 19.2323
rfoot -18.4642 2.77593
rtoes -4.94595
lfemur -39.9093 8.12405 -17.4941
ltibia 32.0385
lfoot -12.7705 9.2224
ltoes -12.6358
34
root 8.23306 16.1897 -27.6993 5.62576 -0.93023 -4.19444
lowerback -5.40421 2.02241 0.999109
upperback -0.0239655 2.53248 3.38615
thorax 2.89473 1.25465 3.13137
lowerneck -21.848 -6.71174 -15.1424
upperneck 19.3666 -7.74113 13.8007
head 11.051 -3.08249 6.33802
rclavicle 3.52346e-014 2.94201e-014
rhumerus -28.9006 21.8499 -83.6711
rradius 43.7667
rwrist -20.9588
rhand -32.6833 -29.388
rfingers 7.12502
rthumb -5.90847 -59.2857
lclavicle 3.52346e-014 2.94201e-014
lhumerus -45.8331 -0.963422 85.3204
lradius 26.6814
lwrist 5.07228
lhand -11.6909 -20.7522
lfingers 7.12502
lthumb 14.3548 8.73148
rfemur -3.03337 3.4596 31.8578
rtibia 18.6054
rfoot -18.3789 2.94973
rtoes -5.09205
lfemur -39.8468 7.84506 -17.0472
ltibia 29.8044
lfoot -12.8217 8.82823
ltoes -13.0704
35
root 8.24207 16.1912 -27.5826 5.65223 -1.074 -4.4801
lowerback -5.40755 2.10884 1.30311
upperback -0.00653369 2.62749 3.39182
thorax 2.92378 1.30584 2.97469
lowerneck -21.7331 -6.64717 -14.8578
upperneck 19.1985 -7.74129 13.7809
head 10.9542 -3.06647 6.27508
rclavicle -1.24737e-014 -8.34896e-015
rhumerus -28.8248 21.7556 -83.7574
rradius 44.1193
rwrist -21.1242
rhand -32.3065 -27.1458
rfingers 7.12502
rthumb -5.54468 -57.0532
lclavicle -1.24737e-014 -8.34896e-015
lhumerus -45.814 -0.890041 85.3103
lradius 26.5523
lwrist 4.8858
lhand -11.8543 -20.6163
lfingers 7.12502
lthumb 14.1974 8.87847
rfemur -2.1355 3.1516 32.1215
rtibia 17.7167
rfoot -18.173 3.17936
rtoes -6.54244
lfemur -39.8291 7.3823 -16.548
ltibia 27.7976
lfoot -12.9281 8.91412
ltoes -13.4795
36
root 8.24898 16.1869 -27.4612 5.73615 -1.18273 -4.599
lowerback -5.4092 2.14435 1.38082
upperback -0.102084 2.67343 3.38488
thorax 2.82803 1.33058 2.92445
lowerneck -21.7397 -6.53811 -14.7288
upperneck 19.3815 -7.65643 13.814
head 11.0043 -3.01454 6.28839
rclavicle -1.95057e-014 -1.27222e-014
rhumerus -28.9355 21.7149 -83.9404
rradius 44.4165
rwrist -21.4887
rhand -32.4481 -25.9831
rfingers 7.12502
rthumb -5.68134 -55.8869
lclavicle -1.95057e-014 -1.27222e-014
lhumerus -45.954 -0.773976 85.311
lradius 26.3619
lwrist 4.5168
lhand -12.4225 -21.5375
lfingers 7.12502
lthumb 13.6498 7.9949
rfemur -1.21607 2.96832 32.2172
rtibia 16.6121
rfoot -17.9199 3.40791
rtoes -7.0229
lfemur -39.8978 6.71346 -16.1126
ltibia 26.0011
lfoot -13.1266 9.19778
ltoes -14.9124
